<svg width="115" height="31" viewBox="0 0 115 31" fill="none" xmlns="http://www.w3.org/2000/svg">
<g clip-path="url(#clip0_4625_165803)">
<path d="M4.44952 25.4249C3.74913 25.4167 3.16822 25.4002 2.70679 25.3755C2.2536 25.3508 1.85397 25.2931 1.50789 25.2024C1.17006 25.12 0.910504 25.0253 0.729227 24.9182C0.54795 24.8028 0.403753 24.638 0.296635 24.4238C0.189517 24.2013 0.119478 23.9747 0.0865185 23.744C0.0617989 23.505 0.0494391 23.1878 0.0494391 22.7923C0.0494391 22.199 0.111238 21.75 0.234836 21.4451C0.358434 21.1402 0.601509 20.8642 0.964063 20.617C1.3431 20.3698 1.59441 20.1185 1.71801 19.863C1.84985 19.5994 1.91577 19.175 1.91577 18.59V14.1775C1.91577 13.6749 1.85809 13.2794 1.74273 12.991C1.62737 12.7026 1.40078 12.4595 1.06294 12.2618C0.832225 12.1217 0.650948 11.9857 0.519111 11.8539C0.387273 11.7138 0.267795 11.4872 0.160677 11.1741C0.053559 10.8528 0 10.4531 0 9.97521C0 9.57146 0.0123598 9.24599 0.0370793 8.99879C0.0617989 8.74336 0.115358 8.50852 0.197756 8.29429C0.288395 8.07181 0.399633 7.90701 0.531471 7.79989C0.663308 7.68454 0.852825 7.58978 1.10002 7.51562C1.35546 7.43322 1.64385 7.37966 1.9652 7.35494C2.28656 7.33022 2.69443 7.31786 3.18882 7.31786C3.23002 7.31786 4.04577 7.31374 5.63606 7.3055C7.23459 7.28902 8.39229 7.2849 9.10916 7.29314C11.6388 7.29314 13.468 7.74634 14.5969 8.65272C15.734 9.5591 16.2943 10.997 16.2778 12.9663C16.2778 14.9026 15.701 16.4023 14.5475 17.4652C13.3939 18.5282 11.6223 19.0432 9.23275 19.0102C8.56533 19.002 8.08742 19.0184 7.79902 19.0596C7.51887 19.0926 7.33759 19.1544 7.25519 19.245C7.17279 19.3357 7.13159 19.4964 7.13159 19.7271C7.13159 19.9825 7.19751 20.1761 7.32935 20.308C7.46943 20.4398 7.80314 20.617 8.33049 20.8394C8.83312 21.0784 9.16272 21.3544 9.31927 21.6676C9.48407 21.9724 9.56647 22.3885 9.56647 22.9159C9.56647 23.3526 9.52939 23.7028 9.45523 23.9665C9.38931 24.2219 9.26159 24.4567 9.07208 24.671C8.8908 24.877 8.60241 25.0294 8.20689 25.1283C7.81138 25.2272 7.32111 25.3013 6.73608 25.3508C6.15105 25.4002 5.38886 25.4249 4.44952 25.4249ZM9.10916 15.3517C9.76835 15.3517 10.2051 15.2281 10.4193 14.9809C10.6335 14.7337 10.72 14.297 10.6788 13.6708C10.6294 12.9457 10.3946 12.3771 9.97434 11.9651C9.56235 11.5449 8.96908 11.3471 8.19453 11.3719C7.98854 11.3801 7.82786 11.3925 7.7125 11.4089C7.59714 11.4172 7.49415 11.446 7.40351 11.4955C7.31287 11.5449 7.25107 11.5902 7.21811 11.6314C7.18515 11.6726 7.16043 11.7591 7.14395 11.891C7.12747 12.0228 7.11923 12.1423 7.11923 12.2494C7.12747 12.3483 7.13571 12.5254 7.14395 12.7809C7.15219 13.0363 7.15631 13.267 7.15631 13.473C7.15631 13.4895 7.15631 13.5101 7.15631 13.5348C7.15631 14.4083 7.24283 14.9356 7.41587 15.1169C7.59714 15.2982 8.16157 15.3764 9.10916 15.3517Z" fill="#470E81"/>
<path d="M22.0375 25.289C19.9858 25.289 18.688 25.186 18.1442 24.98C17.6003 24.7657 17.3284 24.1519 17.3284 23.1384C17.3284 22.6357 17.3861 22.2196 17.5014 21.89C17.6168 21.5604 17.8393 21.2844 18.1689 21.0619C18.449 20.8806 18.655 20.6911 18.7869 20.4934C18.9187 20.2874 19.0011 20.0155 19.0341 19.6776C19.067 19.2409 19.0835 18.2357 19.0835 16.6618C19.0835 16.2746 19.0093 16.0233 18.861 15.9079C18.7127 15.7843 18.4408 15.7143 18.0453 15.6978C17.5674 15.6731 17.2048 15.5701 16.9576 15.3888C16.7187 15.2075 16.5992 14.8903 16.5992 14.4371C16.5992 13.3824 17.0483 12.4801 17.9464 11.7303C18.8033 11.0382 19.7468 10.6921 20.7768 10.6921C21.4113 10.6921 21.9098 10.8486 22.2723 11.1618C22.6431 11.4666 22.8368 11.8745 22.8532 12.3854C22.8532 12.4183 22.8532 12.4678 22.8532 12.5337C22.8532 12.5996 22.8532 12.649 22.8532 12.682C22.8532 12.7067 22.8532 12.7438 22.8532 12.7932C22.8532 12.8427 22.8532 12.8798 22.8532 12.9045C22.8615 12.921 22.8697 12.9498 22.8779 12.991C22.8862 13.024 22.8944 13.0487 22.9027 13.0652C22.9191 13.0734 22.9356 13.0899 22.9521 13.1146C22.9686 13.1393 22.9892 13.1558 23.0139 13.164C23.0386 13.164 23.0675 13.1682 23.1004 13.1764C23.1334 13.1846 23.1705 13.1888 23.2117 13.1888C23.2446 13.1888 23.2735 13.1846 23.2982 13.1764C23.3311 13.1682 23.3641 13.1558 23.3971 13.1393C23.43 13.1146 23.4589 13.094 23.4836 13.0775C23.5083 13.0528 23.533 13.0198 23.5577 12.9786C23.5907 12.9374 23.6195 12.9004 23.6443 12.8674C23.669 12.8344 23.6978 12.785 23.7308 12.7191C23.772 12.6532 23.8049 12.5955 23.8297 12.546C23.8626 12.4966 23.9038 12.4266 23.9533 12.3359C24.0027 12.2453 24.048 12.167 24.0892 12.1011C24.6825 11.0711 25.593 10.5561 26.8207 10.5561C27.9166 10.5561 28.7282 10.9228 29.2556 11.6561C29.7829 12.3895 30.0384 13.4236 30.0219 14.7584C30.0054 15.8543 29.7912 16.6618 29.3792 17.181C28.9672 17.6918 28.2915 17.9473 27.3522 17.9473C26.899 17.9473 26.5323 17.8855 26.2522 17.7619C25.9803 17.63 25.7495 17.4158 25.56 17.1192C25.4694 16.9708 25.3664 16.7525 25.251 16.4641C25.1357 16.1757 25.0244 15.9738 24.9173 15.8585C24.8102 15.7349 24.6619 15.6731 24.4724 15.6731C24.324 15.6731 24.2046 15.6978 24.1139 15.7472C24.0233 15.7967 23.9574 15.8873 23.9162 16.0191C23.875 16.1427 23.8503 16.2457 23.842 16.3281C23.8338 16.4105 23.8255 16.5547 23.8173 16.7607C23.8008 17.4199 23.8338 18.3139 23.9162 19.4428C23.9327 19.7641 24.0068 20.0237 24.1386 20.2215C24.2705 20.411 24.5506 20.6087 24.9791 20.8147C25.5641 21.1114 25.9597 21.408 26.1657 21.7046C26.3716 21.993 26.4746 22.4627 26.4746 23.1136C26.4746 23.468 26.4376 23.7605 26.3634 23.9912C26.2975 24.2137 26.1739 24.4155 25.9926 24.5968C25.8113 24.7781 25.5477 24.9182 25.2016 25.0171C24.8555 25.1077 24.4312 25.1736 23.9285 25.2148C23.4259 25.2642 22.7956 25.289 22.0375 25.289Z" fill="#470E81"/>
<path d="M37.4625 25.598C35.0647 25.598 33.2766 24.9388 32.0983 23.6204C30.92 22.302 30.3309 20.481 30.3309 18.1574C30.3309 17.2675 30.4215 16.4394 30.6028 15.6731C30.7841 14.9068 31.0642 14.2064 31.4433 13.5719C31.8306 12.9292 32.3085 12.3854 32.877 11.9404C33.4456 11.4955 34.1295 11.1535 34.9287 10.9146C35.7362 10.6674 36.6303 10.5479 37.6108 10.5561C38.7973 10.5644 39.8438 10.758 40.7502 11.137C41.6566 11.5161 42.394 12.0434 42.9626 12.7191C43.5311 13.3947 43.9596 14.1899 44.248 15.1045C44.5364 16.0191 44.6806 17.0368 44.6806 18.1574C44.6806 20.4645 44.075 22.2814 42.8637 23.608C41.6525 24.9347 39.852 25.598 37.4625 25.598ZM38.3277 21.0372C39.6131 20.7488 39.9674 19.6364 39.3906 17.7001C39.0363 16.5712 38.6614 15.8008 38.2659 15.3888C37.8786 14.9686 37.3677 14.845 36.7333 15.018C35.522 15.3311 35.1759 16.563 35.695 18.7136C35.9422 19.6776 36.2801 20.3451 36.7085 20.7159C37.1453 21.0866 37.685 21.1938 38.3277 21.0372Z" fill="#470E81"/>
<path d="M50.0695 25.289C49.2208 25.289 48.5245 25.2601 47.9807 25.2024C47.4368 25.1448 46.9919 25.0624 46.6458 24.9553C46.2997 24.8481 46.0402 24.6833 45.8671 24.4609C45.7023 24.2384 45.5911 23.9994 45.5334 23.744C45.484 23.4886 45.4593 23.1425 45.4593 22.7058C45.4593 22.2526 45.5252 21.89 45.657 21.6181C45.7889 21.3462 46.0196 21.0619 46.3492 20.7653C46.7529 20.411 46.996 20.0731 47.0784 19.7518C47.1608 19.4222 47.202 18.833 47.202 17.9843C47.202 17.8525 47.202 17.7495 47.202 17.6753C47.202 17.4941 47.202 17.2963 47.202 17.0821C47.2102 16.8678 47.2144 16.7072 47.2144 16.6C47.2226 16.4847 47.2226 16.3611 47.2144 16.2293C47.2144 16.0974 47.202 16.0027 47.1773 15.945C47.1608 15.8873 47.1361 15.8296 47.1031 15.7719C47.0702 15.706 47.0207 15.6648 46.9548 15.6483C46.8889 15.6236 46.8106 15.6071 46.72 15.5989C46.6293 15.5824 46.514 15.5742 46.3739 15.5742C46.1597 15.5824 45.9784 15.5618 45.8301 15.5124C45.69 15.463 45.5787 15.4053 45.4963 15.3394C45.4139 15.2734 45.3439 15.1581 45.2862 14.9933C45.2368 14.8202 45.1997 14.676 45.175 14.5607C45.1585 14.4371 45.1338 14.2352 45.1008 13.9551C45.0267 13.403 45.0473 12.9704 45.1626 12.6573C45.278 12.3359 45.554 11.9734 45.9907 11.5696C46.3451 11.2647 46.5222 10.8857 46.5222 10.4325C46.5222 9.81454 46.6499 9.22539 46.9054 8.66508C47.1608 8.09653 47.5192 7.5939 47.9807 7.15719C48.4503 6.71223 49.0477 6.35792 49.7728 6.09425C50.4979 5.83057 51.2972 5.69873 52.1706 5.69873C55.2853 5.69873 56.8426 6.67104 56.8426 8.61564C56.8426 9.39842 56.6407 9.99169 56.237 10.3954C55.8332 10.791 55.2606 10.9887 54.519 10.9887C54.1729 10.9887 53.9051 10.9805 53.7156 10.964C53.5343 10.9475 53.3654 10.9228 53.2088 10.8898C53.0605 10.8569 52.9411 10.7868 52.8504 10.6797C52.768 10.5726 52.6939 10.4614 52.6279 10.346C52.562 10.2224 52.4755 10.0329 52.3684 9.77746C52.2365 9.4973 52.0924 9.29543 51.9358 9.17183C51.7875 9.04823 51.5938 8.99879 51.3549 9.02351C51.2807 9.03175 51.2107 9.04411 51.1448 9.06059C51.0871 9.07707 51.0335 9.10591 50.9841 9.14711C50.9429 9.18831 50.9058 9.22539 50.8729 9.25835C50.8481 9.28307 50.8234 9.32839 50.7987 9.3943C50.7822 9.46022 50.7657 9.50966 50.7493 9.54262C50.741 9.57558 50.7328 9.6415 50.7245 9.74038C50.7245 9.83102 50.7245 9.89694 50.7245 9.93813C50.7245 9.97109 50.7245 10.0453 50.7245 10.1606C50.7245 10.276 50.7245 10.3501 50.7245 10.3831C50.7245 10.6303 50.7287 10.828 50.7369 10.9764C50.7451 11.1247 50.7781 11.2565 50.8358 11.3719C50.8934 11.4872 50.947 11.5696 50.9964 11.6191C51.0541 11.6685 51.1612 11.7097 51.3178 11.7427C51.4826 11.7756 51.635 11.7962 51.7751 11.8045C51.9152 11.8045 52.1377 11.8045 52.4425 11.8045C53.4808 11.8045 54.1235 11.8415 54.3707 11.9157C54.725 12.0146 54.9392 12.2577 55.0134 12.6449C55.0628 12.9086 55.0669 13.3124 55.0257 13.8562C55.001 14.1528 54.9845 14.3712 54.9763 14.5112C54.9681 14.6513 54.9433 14.812 54.9021 14.9933C54.8692 15.1663 54.8445 15.2858 54.828 15.3517C54.8197 15.4094 54.7744 15.4836 54.692 15.5742C54.6096 15.6566 54.5437 15.706 54.4943 15.7225C54.4531 15.739 54.3542 15.7596 54.1976 15.7843C54.0493 15.809 53.9216 15.8214 53.8145 15.8214C53.7156 15.8214 53.5426 15.8214 53.2954 15.8214C53.2294 15.8214 53.18 15.8214 53.1471 15.8214C52.9575 15.8214 52.801 15.8461 52.6774 15.8955C52.562 15.9367 52.4714 15.9821 52.4055 16.0315C52.3478 16.0809 52.3066 16.1839 52.2819 16.3405C52.2571 16.4888 52.2448 16.6124 52.2448 16.7113C52.2448 16.8102 52.2489 16.9914 52.2571 17.2551C52.2654 17.5106 52.2695 17.7165 52.2695 17.8731C52.2695 17.9555 52.2695 18.0667 52.2695 18.2068C52.2613 18.9978 52.3231 19.5499 52.4549 19.863C52.5867 20.1679 52.9534 20.4522 53.5549 20.7159C54.0328 20.9301 54.3583 21.169 54.5313 21.4327C54.7126 21.6964 54.8033 22.1207 54.8033 22.7058C54.8033 23.126 54.7744 23.4638 54.7167 23.7193C54.6591 23.9665 54.5437 24.2054 54.3707 24.4361C54.1976 24.6586 53.934 24.8275 53.5796 24.9429C53.2253 25.05 52.7639 25.1324 52.1953 25.1901C51.635 25.256 50.9264 25.289 50.0695 25.289Z" fill="#470E81"/>
<path d="M59.9696 10.3089C58.8078 10.3089 57.9138 10.1029 57.2876 9.69094C56.6613 9.27895 56.3482 8.70216 56.3482 7.96057C56.3482 7.16955 56.6407 6.54744 57.2258 6.09425C57.819 5.63282 58.6883 5.4021 59.8337 5.4021C60.9955 5.4021 61.8648 5.63694 62.4416 6.10661C63.0184 6.56804 63.3068 7.19427 63.3068 7.98529C63.3068 9.53438 62.1944 10.3089 59.9696 10.3089ZM59.7348 25.289C58.9603 25.289 58.4082 25.2807 58.0786 25.2642C57.7572 25.256 57.3906 25.2148 56.9786 25.1406C56.5666 25.0747 56.2906 24.9594 56.1505 24.7946C56.0104 24.6298 55.8868 24.4073 55.7797 24.1271C55.6808 23.847 55.6314 23.4762 55.6314 23.0148C55.6314 22.1496 55.9115 21.4904 56.4718 21.0372C56.752 20.79 56.9539 20.5428 57.0775 20.2956C57.2011 20.0484 57.2876 19.657 57.337 19.1214C57.3535 18.9154 57.3617 18.0379 57.3617 16.4888C57.3617 16.1263 57.3123 15.8873 57.2134 15.7719C57.1145 15.6483 56.9168 15.5742 56.6201 15.5495C56.2329 15.533 55.9486 15.4341 55.7673 15.2528C55.5943 15.0716 55.5078 14.7749 55.5078 14.3629C55.5078 13.9509 55.6272 13.5266 55.8662 13.0899C56.1052 12.6449 56.4183 12.2659 56.8055 11.9528C57.6625 11.2771 58.7048 10.9393 59.9326 10.9393C60.979 10.9393 61.7371 11.1412 62.2068 11.5449C62.6847 11.9404 62.9236 12.5419 62.9236 13.3494C62.9236 13.8438 62.8206 14.5401 62.6146 15.4382C62.4086 16.3364 62.3015 17.0656 62.2933 17.6259C62.2933 18.5241 62.3098 19.1832 62.3427 19.6035C62.3674 19.9413 62.4169 20.205 62.491 20.3945C62.5734 20.584 62.7094 20.7735 62.8989 20.963C63.1543 21.2185 63.3398 21.4904 63.4551 21.7788C63.5787 22.0672 63.6405 22.4709 63.6405 22.99C63.6405 23.6245 63.5375 24.0983 63.3315 24.4114C63.1337 24.7245 62.7588 24.9511 62.2068 25.0912C61.6629 25.223 60.839 25.289 59.7348 25.289Z" fill="#470E81"/>
<path d="M70.5002 25.4744C69.0005 25.4744 67.7769 25.05 66.8293 24.2013C65.8817 23.3526 65.408 22.2073 65.408 20.7653C65.408 20.3039 65.4533 19.6323 65.5439 18.7506C65.6428 17.869 65.6922 17.1645 65.6922 16.6371C65.6922 16.5547 65.6881 16.4888 65.6799 16.4394C65.6799 16.3817 65.6757 16.3281 65.6675 16.2787C65.6675 16.2293 65.6551 16.1881 65.6304 16.1551C65.614 16.1221 65.6016 16.0933 65.5934 16.0686C65.5851 16.0439 65.5563 16.0274 65.5068 16.0191C65.4656 16.0027 65.4368 15.9903 65.4203 15.9821C65.4038 15.9656 65.3585 15.9573 65.2844 15.9573C65.2102 15.9491 65.1566 15.945 65.1237 15.945C65.099 15.945 65.033 15.945 64.9259 15.945C64.8188 15.9367 64.7364 15.9326 64.6787 15.9326C64.4975 15.9244 64.345 15.8832 64.2214 15.809C64.0978 15.7349 64.0031 15.6525 63.9371 15.5618C63.8795 15.4712 63.8341 15.327 63.8012 15.1292C63.7682 14.9315 63.7476 14.7667 63.7394 14.6348C63.7394 14.4948 63.7394 14.2764 63.7394 13.9798C63.7394 13.6914 63.7435 13.4607 63.7517 13.2876C63.76 13.1064 63.8012 12.9333 63.8753 12.7685C63.9495 12.6037 64.0113 12.4842 64.0607 12.4101C64.1102 12.3277 64.2338 12.2206 64.4315 12.0887C64.6293 11.9487 64.79 11.8498 64.9136 11.7921C65.0454 11.7262 65.2926 11.6026 65.6551 11.4213C66.0259 11.2318 66.3391 11.0711 66.5945 10.9393C66.7758 10.8404 67.0683 10.6797 67.472 10.4572C67.8758 10.2265 68.1559 10.0741 68.3125 9.99993C68.4691 9.91753 68.6833 9.81866 68.9552 9.7033C69.2271 9.5797 69.4661 9.4973 69.6721 9.4561C69.8863 9.4149 70.1047 9.3943 70.3271 9.3943C70.6155 9.3943 70.8504 9.47258 71.0317 9.62914C71.2129 9.7857 71.3036 10.037 71.3036 10.3831C71.3036 10.5396 71.3077 10.6715 71.3159 10.7786C71.3324 10.8775 71.3571 10.964 71.3901 11.0382C71.423 11.1041 71.4684 11.1535 71.526 11.1865C71.5837 11.2194 71.6538 11.2483 71.7362 11.273C71.8186 11.2895 71.9133 11.2977 72.0204 11.2977C72.1358 11.2977 72.2718 11.2977 72.4283 11.2977C72.5437 11.2977 72.6343 11.2977 72.7002 11.2977C72.9639 11.2977 73.1575 11.3018 73.2811 11.3101C73.4047 11.3101 73.5572 11.3183 73.7384 11.3348C73.9197 11.343 74.0474 11.3636 74.1216 11.3966C74.1958 11.4295 74.2823 11.4749 74.3812 11.5325C74.4883 11.5902 74.5583 11.6644 74.5913 11.755C74.6242 11.8374 74.6531 11.9445 74.6778 12.0764C74.7107 12.2 74.7272 12.3524 74.7272 12.5337C74.7272 12.7974 74.7107 13.1517 74.6778 13.5966C74.6448 14.0333 74.6201 14.3794 74.6036 14.6348C74.5954 14.8738 74.5666 15.0798 74.5171 15.2528C74.4759 15.4176 74.4018 15.5536 74.2946 15.6607C74.1875 15.7596 74.0845 15.842 73.9856 15.9079C73.895 15.9656 73.7426 16.0068 73.5283 16.0315C73.3141 16.0562 73.1328 16.0727 72.9845 16.0809C72.8444 16.0809 72.6137 16.0809 72.2924 16.0809C72.004 16.0809 71.798 16.0851 71.6744 16.0933C71.5508 16.0933 71.4189 16.1057 71.2788 16.1304C71.147 16.1469 71.0605 16.1716 71.0193 16.2045C70.9863 16.2375 70.9492 16.2952 70.9081 16.3776C70.8751 16.4517 70.8586 16.5383 70.8586 16.6371C70.8586 16.736 70.8586 16.872 70.8586 17.045C70.8586 17.1768 70.8586 17.284 70.8586 17.3664C70.8586 17.4405 70.8586 17.5682 70.8586 17.7495C70.8586 17.9308 70.8463 18.1945 70.8215 18.5405C70.8051 18.8866 70.7968 19.1379 70.7968 19.2945C70.7968 19.6735 70.8998 19.966 71.1058 20.172C71.32 20.378 71.6084 20.481 71.971 20.481C72.2017 20.481 72.5395 20.4522 72.9845 20.3945C73.4295 20.3368 73.7384 20.308 73.9115 20.308C74.1752 20.308 74.3647 20.4027 74.48 20.5923C74.6036 20.7735 74.6613 21.1155 74.6531 21.6181C74.6366 22.7717 74.2658 23.7028 73.5407 24.4114C72.8156 25.12 71.8021 25.4744 70.5002 25.4744Z" fill="#470E81"/>
<rect x="78.5879" y="-0.181641" width="36.6066" height="31.3636" rx="6.14703" fill="#FCB706"/>
<path d="M86.0412 24.9092C83.5437 24.9092 82.2949 23.5555 82.2949 20.8481C82.2949 19.6282 82.6876 18.6641 83.473 17.9557C84.2662 17.2395 85.3775 16.8814 86.8069 16.8814C87.3174 16.8814 87.8004 16.9168 88.2559 16.9877C88.7193 17.0585 89.002 17.0939 89.1041 17.0939C89.2769 17.0939 89.3986 17.0782 89.4693 17.0467C89.54 17.0073 89.595 16.9011 89.6342 16.7279C89.6814 16.5469 89.6971 16.2597 89.6814 15.8661C89.6578 14.7013 89.2141 14.1189 88.3502 14.1189C87.9182 14.1189 87.604 14.1937 87.4077 14.3432C87.2114 14.4849 87.0621 14.7328 86.96 15.087C86.8187 15.5671 86.6105 15.9094 86.3357 16.114C86.0686 16.3187 85.6563 16.421 85.0987 16.421C83.3944 16.421 82.5423 15.7835 82.5423 14.5085C82.5423 13.4696 83.0646 12.592 84.1091 11.8758C85.35 10.9865 87.1132 10.5418 89.3986 10.5418C91.1186 10.5418 92.4105 10.9117 93.2744 11.6515C94.1462 12.3913 94.5821 13.4657 94.5821 14.8745C94.5821 15.512 94.5271 16.421 94.4172 17.6016C94.3151 18.7821 94.264 19.4354 94.264 19.5613C94.264 19.9312 94.4172 20.1162 94.7235 20.1162H95.3714C95.6541 20.1162 95.8544 20.2145 95.9722 20.4113C96.09 20.6081 96.1489 20.9229 96.1489 21.3557C96.1489 21.7729 96.0861 22.1861 95.9604 22.5953C95.8348 22.9967 95.6502 23.3745 95.4067 23.7287C95.1711 24.075 94.8491 24.3544 94.4407 24.5669C94.0402 24.7794 93.5886 24.8856 93.086 24.8856C91.9943 24.8856 91.1893 24.5708 90.6709 23.9412C90.5453 23.7916 90.4235 23.6264 90.3057 23.4453C90.1958 23.2643 90.1094 23.1384 90.0466 23.0676C89.9837 22.9889 89.9013 22.9495 89.7992 22.9495C89.6735 22.9495 89.5675 22.9849 89.4811 23.0558C89.4026 23.1266 89.3044 23.2565 89.1866 23.4453C89.0688 23.6342 88.9706 23.7759 88.8921 23.8703C88.625 24.2324 88.2873 24.496 87.8789 24.6613C87.4784 24.8266 86.8658 24.9092 86.0412 24.9092ZM88.3855 21.2967C88.8096 21.2967 89.1434 21.159 89.3868 20.8835C89.6303 20.6081 89.752 20.2145 89.752 19.703C89.752 19.3173 89.7324 19.093 89.6931 19.03C89.6146 18.9356 89.379 18.8884 88.9863 18.8884C88.625 18.8884 88.3187 19.0104 88.0674 19.2543C87.8161 19.4983 87.6787 19.8171 87.6551 20.2106C87.608 20.6041 87.6355 20.8835 87.7376 21.0488C87.8475 21.2141 88.0635 21.2967 88.3855 21.2967Z" fill="#470E81"/>
<path d="M100.013 24.7794C99.5025 24.7794 99.0823 24.7715 98.7524 24.7558C98.4226 24.74 98.1045 24.7007 97.7982 24.6377C97.4919 24.5826 97.2524 24.5039 97.0796 24.4016C96.9068 24.2993 96.7536 24.1616 96.6201 23.9884C96.4945 23.8153 96.4042 23.6067 96.3492 23.3627C96.3021 23.1187 96.2785 22.8196 96.2785 22.4655C96.2785 21.9696 96.3217 21.584 96.4081 21.3085C96.4945 21.0252 96.6908 20.7497 96.9971 20.4821C97.2484 20.2696 97.4134 20.0296 97.4919 19.762C97.5704 19.4865 97.6293 19.0576 97.6686 18.4752C97.6843 17.9242 97.6922 17.0624 97.6922 15.8897C97.6922 14.1189 97.6843 12.9265 97.6686 12.3126C97.6529 11.9349 97.594 11.6909 97.4919 11.5807C97.3977 11.4626 97.1856 11.3918 96.8557 11.3682C96.4316 11.3524 96.1096 11.2541 95.8897 11.073C95.662 10.892 95.5481 10.5772 95.5481 10.1286C95.5481 9.28646 95.9094 8.44826 96.6319 7.61399C97.0167 7.14964 97.484 6.77973 98.0338 6.50426C98.5836 6.2288 99.1805 6.09106 99.8245 6.09106C100.728 6.09106 101.462 6.33898 102.027 6.83482C102.601 7.33066 102.887 8.05867 102.887 9.01886C102.887 9.27859 102.821 10.4788 102.687 12.6196C102.452 15.7284 102.365 17.8495 102.428 18.9828C102.452 19.3449 102.503 19.6203 102.581 19.8092C102.66 19.9981 102.809 20.1909 103.029 20.3877C103.304 20.6238 103.5 20.8796 103.618 21.1551C103.743 21.4305 103.806 21.8162 103.806 22.312C103.806 22.7921 103.755 23.1778 103.653 23.469C103.559 23.7523 103.374 24.0002 103.099 24.2127C102.825 24.4252 102.44 24.5708 101.945 24.6495C101.458 24.7361 100.814 24.7794 100.013 24.7794Z" fill="#470E81"/>
<path d="M107.694 24.7794C107.183 24.7794 106.763 24.7715 106.433 24.7558C106.104 24.74 105.785 24.7007 105.479 24.6377C105.173 24.5826 104.933 24.5039 104.761 24.4016C104.588 24.2993 104.435 24.1616 104.301 23.9884C104.175 23.8153 104.085 23.6067 104.03 23.3627C103.983 23.1187 103.959 22.8196 103.959 22.4655C103.959 21.9696 104.003 21.584 104.089 21.3085C104.175 21.0252 104.372 20.7497 104.678 20.4821C104.929 20.2696 105.094 20.0296 105.173 19.762C105.251 19.4865 105.31 19.0576 105.35 18.4752C105.365 17.9242 105.373 17.0624 105.373 15.8897C105.373 14.1189 105.365 12.9265 105.35 12.3126C105.334 11.9349 105.275 11.6909 105.173 11.5807C105.079 11.4626 104.867 11.3918 104.537 11.3682C104.113 11.3524 103.791 11.2541 103.571 11.073C103.343 10.892 103.229 10.5772 103.229 10.1286C103.229 9.28646 103.59 8.44826 104.313 7.61399C104.698 7.14964 105.165 6.77973 105.715 6.50426C106.265 6.2288 106.861 6.09106 107.505 6.09106C108.409 6.09106 109.143 6.33898 109.708 6.83482C110.282 7.33066 110.568 8.05867 110.568 9.01886C110.568 9.27859 110.502 10.4788 110.368 12.6196C110.132 15.7284 110.046 17.8495 110.109 18.9828C110.132 19.3449 110.184 19.6203 110.262 19.8092C110.341 19.9981 110.49 20.1909 110.71 20.3877C110.985 20.6238 111.181 20.8796 111.299 21.1551C111.424 21.4305 111.487 21.8162 111.487 22.312C111.487 22.7921 111.436 23.1778 111.334 23.469C111.24 23.7523 111.055 24.0002 110.78 24.2127C110.506 24.4252 110.121 24.5708 109.626 24.6495C109.139 24.7361 108.495 24.7794 107.694 24.7794Z" fill="#470E81"/>
</g>
<defs>
<clipPath id="clip0_4625_165803">
<rect width="115" height="30.4132" fill="white" transform="translate(0 0.293457)"/>
</clipPath>
</defs>
</svg>
