<svg width="119" height="44" viewBox="0 0 119 44" fill="none" xmlns="http://www.w3.org/2000/svg">
<g clip-path="url(#clip0_1025_2642)">
<path d="M67.551 5.87813L58.7502 26.5901C56.8706 31.3014 54.1896 32.7162 50.6634 32.7162C48.6672 32.7162 46.4962 32.0598 45.2285 30.9367L47.2976 26.911C48.1718 27.6695 49.3666 28.1508 50.4886 28.1508C52.0477 28.1508 52.9219 27.4653 53.6796 25.715L53.7524 25.5399L45.3014 5.87813H51.1443L56.6229 19.1221L62.1307 5.87813H67.551Z" fill="#100F3C"/>
<path d="M86.8726 17.2406H72.1269C72.666 19.6764 74.7351 21.1642 77.7075 21.1642C79.7766 21.1642 81.2628 20.5516 82.6033 19.2826L85.6049 22.5498C83.7981 24.621 81.0734 25.7004 77.5618 25.7004C70.8155 25.7004 66.4297 21.4559 66.4297 15.6507C66.4297 9.80176 70.8884 5.60101 76.8333 5.60101C82.5596 5.60101 86.9891 9.45169 86.9891 15.7236C86.9891 16.1466 86.9163 16.7592 86.8726 17.2406ZM72.054 13.9296H81.6562C81.2628 11.4645 79.4123 9.8601 76.877 9.8601C74.2979 9.87468 72.4474 11.4354 72.054 13.9296Z" fill="#100F3C"/>
<path d="M110.549 15.6361C110.549 21.7622 106.309 25.6858 100.83 25.6858C98.3969 25.6858 96.4007 24.9274 94.9582 23.3229V32.4245H89.3047V5.87816H94.7105V8.12439C96.1238 6.41784 98.222 5.58644 100.83 5.58644C106.309 5.58644 110.549 9.51005 110.549 15.6361ZM104.823 15.6361C104.823 12.2668 102.681 10.2248 99.854 10.2248C97.0272 10.2248 94.8853 12.2522 94.8853 15.6361C94.8853 19.0055 97.0272 21.0475 99.854 21.0475C102.681 21.0475 104.823 19.0201 104.823 15.6361Z" fill="#100F3C"/>
<path d="M112.035 22.3894C112.035 20.537 113.492 19.1659 115.518 19.1659C117.543 19.1659 119 20.5515 119 22.3894C119 24.198 117.543 25.6858 115.518 25.6858C113.492 25.6858 112.035 24.198 112.035 22.3894ZM112.137 0H118.883L117.761 16.5842H113.274L112.137 0Z" fill="#100F3C"/>
<path d="M26.6501 0.670959C26.6501 0.831405 26.6646 4.91546 26.6646 5.07591C26.6063 9.83091 22.5702 13.7399 17.7619 13.667C12.9826 13.6087 9.00478 9.56837 9.04849 4.82794C9.04849 4.75501 9.04849 4.68209 9.06306 4.60916H0.0145708C0.0145708 4.7696 0 4.93005 0 5.09049C0.0437125 14.6151 7.40199 22.3019 17.1062 22.9582C25.9069 23.5563 34.6494 16.5842 35.5383 7.51175C35.6257 6.54908 35.6985 1.64822 35.7568 0.670959H26.6501Z" fill="#0063FF"/>
<path d="M34.9707 20.537C37.0689 25.6858 34.7667 30.8055 29.5504 32.8912C25.8056 34.3936 21.9735 35.6917 18.1851 37.0774C13.741 38.6964 9.31146 40.3301 4.86736 41.9491C4.31367 42.1533 3.73083 42.2554 3.17714 42.4013C1.38493 37.7921 3.17714 32.5266 7.65039 30.7325C16.626 27.159 25.7474 23.9647 34.9707 20.537Z" fill="#0063FF"/>
</g>
<path d="M45.945 39.3704H47.0313C47.3526 39.3704 47.6076 39.2888 47.7963 39.1256C47.985 38.9573 48.0794 38.7329 48.0794 38.4524C48.0794 38.1668 47.985 37.9398 47.7963 37.7715C47.6076 37.5981 47.3526 37.5114 47.0313 37.5114H45.945V39.3704ZM47.169 40.0436H45.945V42.2621H45.1953V36.8382H47.169C47.6637 36.8382 48.0666 36.9912 48.3777 37.2972C48.6888 37.6032 48.8444 37.9857 48.8444 38.4447C48.8444 38.9088 48.6888 39.2913 48.3777 39.5922C48.0666 39.8931 47.6637 40.0436 47.169 40.0436Z" fill="#626E81"/>
<path d="M50.1345 41.39C50.3589 41.6195 50.6317 41.7342 50.953 41.7342C51.2743 41.7342 51.5446 41.6195 51.7639 41.39C51.9883 41.1554 52.1005 40.8315 52.1005 40.4184C52.1005 40.0104 51.9883 39.6917 51.7639 39.4622C51.5446 39.2276 51.2743 39.1103 50.953 39.1103C50.6317 39.1103 50.3589 39.2276 50.1345 39.4622C49.9152 39.6917 49.8055 40.0104 49.8055 40.4184C49.8055 40.8315 49.9152 41.1554 50.1345 41.39ZM49.599 39.0261C49.956 38.6538 50.4073 38.4677 50.953 38.4677C51.4987 38.4677 51.9475 38.6538 52.2994 39.0261C52.6564 39.3933 52.8349 39.8574 52.8349 40.4184C52.8349 40.9845 52.659 41.4537 52.3071 41.826C51.9552 42.1932 51.5038 42.3768 50.953 42.3768C50.4022 42.3768 49.9509 42.1932 49.599 41.826C49.2471 41.4537 49.0711 40.9845 49.0711 40.4184C49.0711 39.8574 49.2471 39.3933 49.599 39.0261Z" fill="#626E81"/>
<path d="M55.7534 38.5824H56.4954L57.4517 41.3517L58.2626 38.5824H59.0199L57.8265 42.2621H57.0845L56.1053 39.4622L55.149 42.2621H54.3917L53.183 38.5824H53.9709L54.7971 41.3517L55.7534 38.5824Z" fill="#626E81"/>
<path d="M60.1384 40.0436H62.1503C62.1401 39.7682 62.0483 39.5438 61.8749 39.3704C61.7015 39.1919 61.4567 39.1026 61.1405 39.1026C60.8549 39.1026 60.6203 39.197 60.4367 39.3857C60.2531 39.5693 60.1537 39.7886 60.1384 40.0436ZM62.2574 40.9998L62.8771 41.214C62.77 41.5557 62.5711 41.8362 62.2804 42.0555C61.9897 42.2697 61.6378 42.3768 61.2247 42.3768C60.7096 42.3768 60.271 42.2009 59.9089 41.849C59.5519 41.492 59.3734 41.0126 59.3734 40.4108C59.3734 39.8498 59.5468 39.3857 59.8936 39.0185C60.2404 38.6513 60.6535 38.4677 61.1329 38.4677C61.6888 38.4677 62.1223 38.6436 62.4334 38.9955C62.7445 39.3423 62.9 39.809 62.9 40.3955C62.9 40.4873 62.8949 40.5638 62.8847 40.625H60.1154C60.1205 40.9514 60.2276 41.2191 60.4367 41.4282C60.6509 41.6373 60.9136 41.7419 61.2247 41.7419C61.75 41.7419 62.0942 41.4945 62.2574 40.9998Z" fill="#626E81"/>
<path d="M65.8605 38.5442V39.3092C65.7534 39.2939 65.6489 39.2862 65.5469 39.2862C64.8737 39.2862 64.5371 39.6636 64.5371 40.4184V42.2621H63.818V38.5824H64.5218V39.225C64.7462 38.7558 65.1134 38.5212 65.6234 38.5212C65.705 38.5212 65.784 38.5289 65.8605 38.5442Z" fill="#626E81"/>
<path d="M67.0563 40.0436H69.0682C69.058 39.7682 68.9662 39.5438 68.7928 39.3704C68.6194 39.1919 68.3746 39.1026 68.0584 39.1026C67.7728 39.1026 67.5382 39.197 67.3546 39.3857C67.171 39.5693 67.0716 39.7886 67.0563 40.0436ZM69.1753 40.9998L69.795 41.214C69.6879 41.5557 69.489 41.8362 69.1983 42.0555C68.9076 42.2697 68.5557 42.3768 68.1426 42.3768C67.6275 42.3768 67.1889 42.2009 66.8268 41.849C66.4698 41.492 66.2913 41.0126 66.2913 40.4108C66.2913 39.8498 66.4647 39.3857 66.8115 39.0185C67.1583 38.6513 67.5714 38.4677 68.0508 38.4677C68.6067 38.4677 69.0402 38.6436 69.3513 38.9955C69.6624 39.3423 69.8179 39.809 69.8179 40.3955C69.8179 40.4873 69.8128 40.5638 69.8026 40.625H67.0333C67.0384 40.9514 67.1455 41.2191 67.3546 41.4282C67.5688 41.6373 67.8315 41.7419 68.1426 41.7419C68.6679 41.7419 69.0121 41.4945 69.1753 40.9998Z" fill="#626E81"/>
<path d="M71.1643 40.4108C71.1643 40.7984 71.2586 41.1146 71.4473 41.3594C71.6411 41.6042 71.9063 41.7266 72.2429 41.7266C72.5642 41.7266 72.8218 41.6016 73.0156 41.3517C73.2094 41.1018 73.3062 40.7831 73.3062 40.3955C73.3062 40.013 73.2119 39.7044 73.0232 39.4698C72.8345 39.2352 72.577 39.1179 72.2506 39.1179C71.9242 39.1179 71.6615 39.2378 71.4626 39.4775C71.2637 39.7172 71.1643 40.0283 71.1643 40.4108ZM73.3139 41.7648V41.7036C73.217 41.8923 73.0691 42.0504 72.8702 42.1779C72.6764 42.3003 72.4444 42.3615 72.1741 42.3615C71.6488 42.3615 71.2255 42.1779 70.9042 41.8107C70.5879 41.4384 70.4299 40.9718 70.4299 40.4108C70.4299 39.8753 70.5931 39.4214 70.9195 39.0491C71.2458 38.6717 71.6641 38.483 72.1741 38.483C72.475 38.483 72.7198 38.5442 72.9085 38.6666C73.0972 38.7839 73.2272 38.9292 73.2986 39.1026V36.7235H74.0101V41.5812C74.0101 41.8311 74.0228 42.0581 74.0483 42.2621H73.3522C73.3267 42.1193 73.3139 41.9535 73.3139 41.7648Z" fill="#626E81"/>
<path d="M77.8572 42.2621H77.1457V36.7235H77.8572V39.1026C77.9541 38.9241 78.1071 38.7762 78.3162 38.6589C78.5304 38.5365 78.7828 38.4753 79.0735 38.4753C79.609 38.4753 80.0247 38.6564 80.3205 39.0185C80.6163 39.3806 80.7642 39.8421 80.7642 40.4031C80.7642 40.9692 80.6112 41.4384 80.3052 41.8107C79.9992 42.1779 79.581 42.3615 79.0506 42.3615C78.4998 42.3615 78.102 42.1499 77.8572 41.7266V42.2621ZM79.7314 41.3594C79.9303 41.1197 80.0298 40.8009 80.0298 40.4031C80.0298 40.0053 79.9303 39.6917 79.7314 39.4622C79.5376 39.2276 79.275 39.1103 78.9435 39.1103C78.6222 39.1103 78.3595 39.2276 78.1555 39.4622C77.9515 39.6968 77.8495 40.0104 77.8495 40.4031C77.8495 40.7958 77.9515 41.1146 78.1555 41.3594C78.3595 41.5991 78.6222 41.7189 78.9435 41.7189C79.2699 41.7189 79.5325 41.5991 79.7314 41.3594Z" fill="#626E81"/>
<path d="M82.449 43.7997H81.6611L82.5791 41.8566L80.9955 38.5824H81.8217L82.9692 41.1222L84.0708 38.5824H84.8435L82.449 43.7997Z" fill="#626E81"/>
<path d="M91.1045 38.1311L90.1559 38.4218C90.1202 38.228 90.0233 38.052 89.8652 37.8939C89.7071 37.7358 89.4751 37.6568 89.1691 37.6568C88.9192 37.6568 88.7152 37.7256 88.5571 37.8633C88.399 37.9959 88.3199 38.1566 88.3199 38.3453C88.3199 38.6768 88.5163 38.8808 88.909 38.9573L89.6663 39.1026C90.1457 39.1944 90.518 39.3857 90.7832 39.6764C91.0484 39.9671 91.181 40.3088 91.181 40.7015C91.181 41.1503 91.0025 41.543 90.6455 41.8796C90.2936 42.2111 89.8193 42.3768 89.2226 42.3768C88.8809 42.3768 88.5724 42.3258 88.297 42.2238C88.0216 42.1218 87.7997 41.9867 87.6314 41.8184C87.4631 41.645 87.3305 41.4639 87.2336 41.2752C87.1418 41.0814 87.0857 40.8825 87.0653 40.6785L88.0445 40.4184C88.07 40.7091 88.1822 40.9514 88.3811 41.1452C88.5851 41.339 88.8682 41.4359 89.2303 41.4359C89.5057 41.4359 89.7199 41.3747 89.8729 41.2523C90.031 41.1299 90.11 40.9692 90.11 40.7703C90.11 40.6122 90.0514 40.4771 89.9341 40.3649C89.8219 40.2476 89.6612 40.1685 89.4521 40.1277L88.6948 39.9747C88.2562 39.8829 87.9094 39.7019 87.6544 39.4316C87.3994 39.1613 87.2719 38.8247 87.2719 38.4218C87.2719 37.9424 87.4555 37.5395 87.8227 37.2131C88.195 36.8867 88.6412 36.7235 89.1614 36.7235C89.4725 36.7235 89.7505 36.7668 89.9953 36.8535C90.2401 36.9402 90.4364 37.0575 90.5843 37.2054C90.7322 37.3482 90.847 37.4961 90.9286 37.6491C91.0102 37.8021 91.0688 37.9628 91.1045 38.1311Z" fill="#626E81"/>
<path d="M95.5455 42.2621H92.0724V36.8382H93.1281V41.2523H95.5455V42.2621Z" fill="#626E81"/>
<path d="M100.025 38.1311L99.0759 38.4218C99.0402 38.228 98.9433 38.052 98.7852 37.8939C98.6271 37.7358 98.3951 37.6568 98.0891 37.6568C97.8392 37.6568 97.6352 37.7256 97.4771 37.8633C97.319 37.9959 97.2399 38.1566 97.2399 38.3453C97.2399 38.6768 97.4363 38.8808 97.829 38.9573L98.5863 39.1026C99.0657 39.1944 99.438 39.3857 99.7032 39.6764C99.9684 39.9671 100.101 40.3088 100.101 40.7015C100.101 41.1503 99.9225 41.543 99.5655 41.8796C99.2136 42.2111 98.7393 42.3768 98.1426 42.3768C97.8009 42.3768 97.4924 42.3258 97.217 42.2238C96.9416 42.1218 96.7197 41.9867 96.5514 41.8184C96.3831 41.645 96.2505 41.4639 96.1536 41.2752C96.0618 41.0814 96.0057 40.8825 95.9853 40.6785L96.9645 40.4184C96.99 40.7091 97.1022 40.9514 97.3011 41.1452C97.5051 41.339 97.7882 41.4359 98.1503 41.4359C98.4257 41.4359 98.6399 41.3747 98.7929 41.2523C98.951 41.1299 99.03 40.9692 99.03 40.7703C99.03 40.6122 98.9714 40.4771 98.8541 40.3649C98.7419 40.2476 98.5812 40.1685 98.3721 40.1277L97.6148 39.9747C97.1762 39.8829 96.8294 39.7019 96.5744 39.4316C96.3194 39.1613 96.1919 38.8247 96.1919 38.4218C96.1919 37.9424 96.3755 37.5395 96.7427 37.2131C97.115 36.8867 97.5612 36.7235 98.0814 36.7235C98.3925 36.7235 98.6705 36.7668 98.9153 36.8535C99.1601 36.9402 99.3564 37.0575 99.5043 37.2054C99.6522 37.3482 99.767 37.4961 99.8486 37.6491C99.9302 37.8021 99.9888 37.9628 100.025 38.1311Z" fill="#626E81"/>
<path d="M108.934 42.2621H107.893V38.46L106.333 42.2621H105.453L103.892 38.4906V42.2621H102.882V36.8382H104.275L105.904 40.755L107.495 36.8382H108.934V42.2621Z" fill="#626E81"/>
<path d="M111.237 42.2621H110.174V36.8382H113.601V37.8404H111.23V39.1791H113.341V40.1507H111.237V42.2621Z" fill="#626E81"/>
<path d="M114.47 36.8382H116.42C116.935 36.8382 117.338 36.9734 117.629 37.2437C117.925 37.514 118.073 37.8659 118.073 38.2994C118.073 38.5748 117.999 38.8196 117.851 39.0338C117.703 39.2429 117.514 39.3857 117.285 39.4622C117.56 39.5285 117.787 39.6789 117.966 39.9135C118.149 40.143 118.241 40.421 118.241 40.7474C118.241 41.1911 118.088 41.5557 117.782 41.8413C117.476 42.1218 117.071 42.2621 116.566 42.2621H114.47V36.8382ZM115.51 39.0797H116.26C116.499 39.0797 116.688 39.0185 116.826 38.8961C116.963 38.7737 117.032 38.6079 117.032 38.3988C117.032 38.1897 116.963 38.0265 116.826 37.9092C116.693 37.7868 116.502 37.7256 116.252 37.7256H115.51V39.0797ZM115.51 41.3823H116.367C116.622 41.3823 116.821 41.3211 116.963 41.1987C117.111 41.0712 117.185 40.8978 117.185 40.6785C117.185 40.4592 117.114 40.2833 116.971 40.1507C116.833 40.0181 116.637 39.9518 116.382 39.9518H115.51V41.3823Z" fill="#626E81"/>
<defs>
<clipPath id="clip0_1025_2642">
<rect width="119" height="42.4158" fill="white"/>
</clipPath>
</defs>
</svg>
